<?xml version="1.0" encoding="UTF-8"?>
<svg width="1440px" height="1319px" viewBox="0 0 1440 1319" version="1.1" xmlns="http://www.w3.org/2000/svg" xmlns:xlink="http://www.w3.org/1999/xlink">
    <!-- Generator: Sketch 46.2 (44496) - http://www.bohemiancoding.com/sketch -->
    <title>navigation</title>
    <desc>Created with Sketch.</desc>
    <defs></defs>
    <g id="Page-1" stroke="none" stroke-width="1" fill="none" fill-rule="evenodd">
        <g id="demo_Page">
            <g id="navigation">
                <g id="topnav">
                    <rect fill="#2B578D" fill-rule="nonzero" x="0" y="0" width="1440" height="65"></rect>
                    <ellipse id="Oval" fill="#D8D8D8" fill-rule="nonzero" cx="41.5" cy="33" rx="26.5" ry="25"></ellipse>
                    <ellipse id="Oval" cx="41.5" cy="33" rx="25.97" ry="24.5"></ellipse>
                    <rect id="Rectangle-path" fill="#D8D8D8" fill-rule="nonzero" x="85" y="25" width="106" height="16"></rect>
                    <rect id="Rectangle-path" x="85.5247525" y="25.5" width="104.950495" height="15"></rect>
                    <rect id="Rectangle-path" fill="#D8D8D8" fill-rule="nonzero" x="999" y="25" width="106" height="16"></rect>
                    <rect id="Rectangle-path" x="999.524752" y="25.5" width="104.950495" height="15"></rect>
                    <rect id="Rectangle-path" fill="#D8D8D8" fill-rule="nonzero" x="858" y="25" width="106" height="16"></rect>
                    <rect id="Rectangle-path" x="858.524752" y="25.5" width="104.950495" height="15"></rect>
                    <rect id="Rectangle-path" fill="#D8D8D8" fill-rule="nonzero" x="1282" y="25" width="106" height="16"></rect>
                    <rect id="Rectangle-path" x="1282.52475" y="25.5" width="104.950495" height="15"></rect>
                    <rect id="Rectangle-path" fill="#D8D8D8" fill-rule="nonzero" x="1141" y="25" width="106" height="16"></rect>
                    <rect id="Rectangle-path" x="1141.52475" y="25.5" width="104.950495" height="15"></rect>
                </g>
                <g id="pagination" transform="translate(600.000000, 1214.000000)" fill="#2B578D">
                    <polygon id="Triangle" transform="translate(440.500000, 23.000000) rotate(90.000000) translate(-440.500000, -23.000000) " points="440.5 8 458 38 423 38"></polygon>
                    <rect id="Rectangle-6" x="59" y="0" width="43" height="42"></rect>
                    <rect id="Rectangle-6" x="133" y="0" width="43" height="42"></rect>
                    <rect id="Rectangle-6" x="206" y="0" width="43" height="42"></rect>
                    <rect id="Rectangle-6" x="279" y="0" width="43" height="42"></rect>
                    <rect id="Rectangle-6" x="352" y="0" width="43" height="42"></rect>
                    <polygon id="Triangle" transform="translate(15.500000, 23.000000) scale(-1, 1) rotate(90.000000) translate(-15.500000, -23.000000) " points="15.5 8 33 38 -2 38"></polygon>
                </g>
                <g id="Search" transform="translate(498.000000, 203.000000)">
                    <rect id="Search-Input" fill="#2B578D" fill-rule="nonzero" x="0" y="0" width="685" height="65"></rect>
                    <text id="" font-family="FontAwesome" font-size="28" font-weight="normal" fill="#FAFAFA">
                        <tspan x="633" y="41"></tspan>
                    </text>
                </g>
                <g id="sidenav" transform="translate(0.000000, 65.000000)">
                    <rect fill="#2B578D" fill-rule="nonzero" x="0" y="0" width="240" height="1254"></rect>
                    <rect id="Rectangle-path" x="39.8019802" y="104.5" width="160.39604" height="15"></rect>
                    <rect id="Rectangle-path" fill="#D8D8D8" fill-rule="nonzero" x="39" y="164" width="162" height="16"></rect>
                    <rect id="Rectangle-path" x="39.8019802" y="164.5" width="160.39604" height="15"></rect>
                    <rect id="Rectangle-path" fill="#D8D8D8" fill-rule="nonzero" x="39" y="44" width="162" height="16"></rect>
                    <rect id="Rectangle-path" x="39.8019802" y="44.5" width="160.39604" height="15"></rect>
                    <rect id="Rectangle-path" fill="#D8D8D8" fill-rule="nonzero" x="39" y="104" width="162" height="16"></rect>
                </g>
                <g id="Iconbar" transform="translate(239.000000, 405.000000)">
                    <rect id="topnav-2" fill="#2B578D" fill-rule="nonzero" x="0" y="0" width="1201" height="124"></rect>
                    <circle id="Oval" fill="#D8D8D8" fill-rule="nonzero" cx="278" cy="49" r="25"></circle>
                    <circle id="Oval" cx="278" cy="49" r="24.5"></circle>
                    <rect id="Rectangle-path" fill="#D8D8D8" fill-rule="nonzero" x="228" y="84" width="101" height="16"></rect>
                    <rect id="Rectangle-path" x="228.5" y="84.5" width="100" height="15"></rect>
                    <circle id="Oval" fill="#D8D8D8" fill-rule="nonzero" cx="439" cy="49" r="25"></circle>
                    <circle id="Oval" cx="439" cy="49" r="24.5"></circle>
                    <rect id="Rectangle-path" fill="#D8D8D8" fill-rule="nonzero" x="389" y="84" width="101" height="16"></rect>
                    <rect id="Rectangle-path" x="389.5" y="84.5" width="100" height="15"></rect>
                    <circle id="Oval" fill="#D8D8D8" fill-rule="nonzero" cx="600" cy="49" r="25"></circle>
                    <circle id="Oval" cx="600" cy="49" r="24.5"></circle>
                    <rect id="Rectangle-path" fill="#D8D8D8" fill-rule="nonzero" x="550" y="84" width="101" height="16"></rect>
                    <rect id="Rectangle-path" x="550.5" y="84.5" width="100" height="15"></rect>
                    <circle id="Oval" fill="#D8D8D8" fill-rule="nonzero" cx="761" cy="49" r="25"></circle>
                    <circle id="Oval" cx="761" cy="49" r="24.5"></circle>
                    <rect id="Rectangle-path" fill="#D8D8D8" fill-rule="nonzero" x="711" y="84" width="101" height="16"></rect>
                    <rect id="Rectangle-path" x="711.5" y="84.5" width="100" height="15"></rect>
                    <circle id="Oval" fill="#D8D8D8" fill-rule="nonzero" cx="922" cy="49" r="25"></circle>
                    <circle id="Oval" cx="922" cy="49" r="24.5"></circle>
                    <rect id="Rectangle-path" fill="#D8D8D8" fill-rule="nonzero" x="872" y="84" width="101" height="16"></rect>
                    <rect id="Rectangle-path" x="872.5" y="84.5" width="100" height="15"></rect>
                </g>
            </g>
        </g>
    </g>
</svg>