<?xml version="1.0" encoding="UTF-8"?>
<svg width="1440px" height="850px" viewBox="0 0 1440 850" version="1.1" xmlns="http://www.w3.org/2000/svg" xmlns:xlink="http://www.w3.org/1999/xlink" style="background: #FAFAFA;">
    <!-- Generator: Sketch 46.2 (44496) - http://www.bohemiancoding.com/sketch -->
    <title>Search_svg</title>
    <desc>Created with Sketch.</desc>
    <defs></defs>
    <g id="Page-1" stroke="none" stroke-width="1" fill="none" fill-rule="evenodd">
        <g id="Search">
            <g id="Wireframe---Hero" transform="translate(0.000000, 65.000000)" fill="#B0B0B0">
                <rect id="Rectangle" x="0" y="0" width="1440" height="340"></rect>
            </g>
            <g id="Wireframe---Top-Nav" fill="#D8D8D8">
                <rect id="Rectangle" x="0" y="0" width="1440" height="65"></rect>
            </g>
            <g id="Media-Object" transform="translate(378.000000, 476.000000)" fill-rule="nonzero">
                <rect id="Rectangle_3" fill="#EDEDED" x="97" y="0" width="215.96" height="86"></rect>
                <rect id="Rectangle_65" fill="#95989A" x="0" y="0" width="96.96" height="86"></rect>
                <rect id="Rectangle_66" fill="#EDEDED" x="469" y="0" width="215.96" height="86"></rect>
                <rect id="Rectangle_67" fill="#95989A" x="372" y="0" width="96.96" height="86"></rect>
                <rect id="Rectangle_68" fill="#EDEDED" x="97" y="106" width="215.96" height="86"></rect>
                <rect id="Rectangle_69" fill="#95989A" x="0" y="106" width="96.96" height="86"></rect>
                <rect id="Rectangle_70" fill="#EDEDED" x="469" y="106" width="215.96" height="86"></rect>
                <rect id="Rectangle_71" fill="#95989A" x="372" y="106" width="96.96" height="86"></rect>
                <rect id="Rectangle_72" fill="#EDEDED" x="97" y="212" width="215.96" height="86"></rect>
                <rect id="Rectangle_73" fill="#95989A" x="0" y="212" width="96.96" height="86"></rect>
                <rect id="Rectangle_74" fill="#EDEDED" x="469" y="212" width="215.96" height="86"></rect>
                <rect id="Rectangle_75" fill="#95989A" x="372" y="212" width="96.96" height="86"></rect>
                <rect id="Rectangle_76" fill="#EDEDED" x="97" y="318" width="215.96" height="86"></rect>
                <rect id="Rectangle_77" fill="#95989A" x="0" y="318" width="96.96" height="86"></rect>
                <rect id="Rectangle_78" fill="#EDEDED" x="469" y="318" width="215.96" height="86"></rect>
                <rect id="Rectangle_79" fill="#95989A" x="372" y="318" width="96.96" height="86"></rect>
            </g>
            <g transform="translate(378.000000, 203.000000)">
                <rect id="Search-Input" fill="#2B578D" fill-rule="nonzero" x="0" y="0" width="685" height="65"></rect>
                <text id="" font-family="FontAwesome" font-size="28" font-weight="normal" fill="#FAFAFA">
                    <tspan x="633" y="41"></tspan>
                </text>
            </g>
            <path d="M721.5,-215.5 L721.5,4.5" id="Line-2" stroke="#464646" stroke-width="5" stroke-linecap="square"></path>
        </g>
    </g>
</svg>