<svg xmlns="http://www.w3.org/2000/svg" viewBox="0 0 92.46 23.5">
    <defs>
        <style>
            <![CDATA[
                @import url('https://fonts.googleapis.com/css?family=Open+Sans+Condensed:700');
                .a, .b {fill: #fafafa;}
                .b {font-family: 'Open Sans Condensed', sans-serif; font-size: 10.34px; font-weight: 700; }
             ]]>
        </style>
    </defs>
    <title>PBPP Most Wanted Absconders - Mobile Logo</title>
    <path class="a" d="M14.63,6.81h-.9v1.8h.73c.87,0,1.56-.08,1.56-.91s-.48-.89-1.39-.89ZM15.7,5.43c0-.62-.37-.73-1.16-.73h-.82V6.25h.77c.83,0,1.2-.26,1.2-.82Zm1,2.23c0,1.06-.68,1.51-2,1.51H13.09v-5h1.49c1.35,0,1.78.37,1.78,1.15a1.08,1.08,0,0,1-.78,1.13A1.15,1.15,0,0,1,16.7,7.67Zm5.29-3h-.8v2h.7c.88,0,1.29-.16,1.29-1s-.44-.94-1.2-.94Zm1.88.93c0,1.13-.55,1.6-1.87,1.6h-.8V9.17h-.64v-5H22c1.18,0,1.84.38,1.84,1.5Zm-5.53-.93h-.8v2h.7c.88,0,1.29-.16,1.29-1s-.44-.94-1.2-.94Zm1.88.93c0,1.13-.55,1.6-1.87,1.6h-.8V9.17H16.9v-5h1.47c1.18,0,1.84.38,1.84,1.5Zm-9.34-.93h-.8v2h.7c.88,0,1.29-.16,1.29-1s-.44-.94-1.2-.94Zm1.88.93c0,1.13-.55,1.6-1.87,1.6h-.8V9.17H9.43v-5h1.47c1.18,0,1.84.38,1.84,1.5ZM2.32,9.32l.87,4a19.14,19.14,0,0,1,7.9-2.66A19.28,19.28,0,0,0,2.32,9.32Zm10.54,1.61a19.4,19.4,0,0,1,8.91,9.21l1.42-6.43a19.24,19.24,0,0,0-10.33-2.78Zm-.84-.4a19.69,19.69,0,0,1,11.27,2.73l2.2-9.93H18.55L19.33,0H7.16l.79,3.34H1L2.23,8.9A19.78,19.78,0,0,1,12,10.53Zm9.6,10.31L21,23.5H5.45L3.29,13.72A18.75,18.75,0,0,1,11.94,11a19,19,0,0,1,9.68,9.88Z"/>
    <text class="b" transform="translate(29.68 9.59)">
        <tspan x="0" y="0">MOST WANTED</tspan>
        <tspan x="0" y="10.2">ABSCONDERS</tspan>
    </text>
</svg>
