<?xml version="1.0" encoding="UTF-8"?>
<svg width="1440px" height="850px" viewBox="0 0 1440 850" version="1.1" xmlns="http://www.w3.org/2000/svg" xmlns:xlink="http://www.w3.org/1999/xlink" style="background: #FAFAFA;">
    <!-- Generator: Sketch 46.2 (44496) - http://www.bohemiancoding.com/sketch -->
    <title>Admin_UI_svg</title>
    <desc>Created with Sketch.</desc>
    <defs></defs>
    <g id="Page-1" stroke="none" stroke-width="1" fill="none" fill-rule="evenodd">
        <g id="Admin_UI">
            <g id="Wireframe---Top-Nav" fill="#464646">
                <rect id="Rectangle" x="0" y="0" width="1440" height="65"></rect>
            </g>
            <g id="topnav---w/-items" fill-rule="nonzero" fill="#2B578D">
                <rect id="topnav" x="0" y="0" width="1440" height="65"></rect>
            </g>
            <g id="Ellipse_6" transform="translate(15.000000, 8.000000)">
                <ellipse id="Oval" fill="#FFFFFF" fill-rule="nonzero" cx="26.5" cy="25" rx="26.5" ry="25"></ellipse>
                <ellipse id="Oval" stroke="#95989A" cx="26.5" cy="25" rx="25.97" ry="24.5"></ellipse>
            </g>
            <g id="Rectangle_64" transform="translate(85.000000, 25.000000)">
                <rect id="Rectangle-path" fill="#FFFFFF" fill-rule="nonzero" x="0" y="0" width="106" height="16"></rect>
                <rect id="Rectangle-path" stroke="#95989A" x="0.524752475" y="0.5" width="104.950495" height="15"></rect>
            </g>
            <g id="Rectangle_62" transform="translate(999.000000, 25.000000)">
                <rect id="Rectangle-path" fill="#FFFFFF" fill-rule="nonzero" x="0" y="0" width="106" height="16"></rect>
                <rect id="Rectangle-path" stroke="#95989A" x="0.524752475" y="0.5" width="104.950495" height="15"></rect>
            </g>
            <g id="Rectangle_63" transform="translate(858.000000, 25.000000)">
                <rect id="Rectangle-path" fill="#FFFFFF" fill-rule="nonzero" x="0" y="0" width="106" height="16"></rect>
                <rect id="Rectangle-path" stroke="#95989A" x="0.524752475" y="0.5" width="104.950495" height="15"></rect>
            </g>
            <g id="Rectangle_60" transform="translate(1282.000000, 25.000000)">
                <rect id="Rectangle-path" fill="#FFFFFF" fill-rule="nonzero" x="0" y="0" width="106" height="16"></rect>
                <rect id="Rectangle-path" stroke="#95989A" x="0.524752475" y="0.5" width="104.950495" height="15"></rect>
            </g>
            <g id="Rectangle_61" transform="translate(1141.000000, 25.000000)">
                <rect id="Rectangle-path" fill="#FFFFFF" fill-rule="nonzero" x="0" y="0" width="106" height="16"></rect>
                <rect id="Rectangle-path" stroke="#95989A" x="0.524752475" y="0.5" width="104.950495" height="15"></rect>
            </g>
            <g id="sidenav" transform="translate(0.000000, 65.000000)" fill-rule="nonzero" fill="#2B578D">
                <rect x="0" y="0" width="240" height="788"></rect>
            </g>
            <g id="Rectangle_63" transform="translate(39.000000, 109.000000)">
                <rect id="Rectangle-path" fill="#FFFFFF" fill-rule="nonzero" x="0" y="0" width="162" height="16"></rect>
                <rect id="Rectangle-path" stroke="#95989A" x="0.801980198" y="0.5" width="160.39604" height="15"></rect>
            </g>
            <g id="Rectangle_63" transform="translate(39.000000, 169.000000)">
                <rect id="Rectangle-path" fill="#FFFFFF" fill-rule="nonzero" x="0" y="0" width="162" height="16"></rect>
                <rect id="Rectangle-path" stroke="#95989A" x="0.801980198" y="0.5" width="160.39604" height="15"></rect>
            </g>
            <g id="Rectangle_63" transform="translate(39.000000, 229.000000)">
                <rect id="Rectangle-path" fill="#FFFFFF" fill-rule="nonzero" x="0" y="0" width="162" height="16"></rect>
                <rect id="Rectangle-path" stroke="#95989A" x="0.801980198" y="0.5" width="160.39604" height="15"></rect>
            </g>
            <rect id="Rectangle-6" fill="#2B578D" x="653" y="620" width="43" height="42"></rect>
            <rect id="Rectangle-6" fill="#2B578D" x="727" y="620" width="43" height="42"></rect>
            <rect id="Rectangle-6" fill="#2B578D" x="800" y="620" width="43" height="42"></rect>
            <rect id="Rectangle-6" fill="#2B578D" x="873" y="620" width="43" height="42"></rect>
            <rect id="Rectangle-6" fill="#2B578D" x="946" y="620" width="43" height="42"></rect>
            <polygon id="Triangle" fill="#2B578D" transform="translate(609.500000, 642.000000) scale(-1, 1) rotate(90.000000) translate(-609.500000, -642.000000) " points="609.5 627 627 657 592 657"></polygon>
            <polygon id="Triangle" fill="#2B578D" transform="translate(1034.500000, 642.000000) rotate(90.000000) translate(-1034.500000, -642.000000) " points="1034.5 627 1052 657 1017 657"></polygon>
            <polygon id="formgroup_bg" fill="#00853F" fill-rule="nonzero" points="485 118.498789 1170 117 1170 440 485 440"></polygon>
            <rect id="Form_field" fill="#FAFAFA" fill-rule="nonzero" x="523" y="157" width="610" height="46"></rect>
            <rect id="Form_field-2" fill="#FAFAFA" fill-rule="nonzero" x="523" y="233" width="610" height="46"></rect>
            <rect id="Form_field-3" fill="#FAFAFA" fill-rule="nonzero" x="519" y="307" width="610" height="92"></rect>
            <g id="_" transform="translate(1106.000000, 246.000000)" font-size="21.33" font-family="FontAwesome" fill="#95989A" font-weight="normal">
                <text id="">
                    <tspan x="0" y="18"></tspan>
                </text>
            </g>
            <rect id="Rectangle_54" fill="#00853F" fill-rule="nonzero" x="722" y="479" width="210" height="65"></rect>
        </g>
    </g>
</svg>