<?xml version="1.0" encoding="UTF-8"?>
<svg width="1440px" height="1600px" viewBox="0 0 1440 1600" version="1.1" xmlns="http://www.w3.org/2000/svg" xmlns:xlink="http://www.w3.org/1999/xlink" style="background: #FAFAFA;">
    <!-- Generator: Sketch 46.2 (44496) - http://www.bohemiancoding.com/sketch -->
    <title>Inputs_1440_svg</title>
    <desc>Created with Sketch.</desc>
    <defs></defs>
    <g id="Page-1" stroke="none" stroke-width="1" fill="none" fill-rule="evenodd">
        <g id="Inputs_1440">
            <g id="Wireframe---Top-Nav" fill="#D8D8D8">
                <rect id="Rectangle" x="0" y="0" width="1440" height="65"></rect>
            </g>
            <rect id="Rectangle" fill="#EBEBEB" x="0" y="1453" width="1440" height="376"></rect>
            <polygon id="formgroup_bg" fill="#00853F" fill-rule="nonzero" points="378 106.150773 1063 105 1063 353 378 353"></polygon>
            <rect id="Form_field" fill="#FAFAFA" fill-rule="nonzero" x="416" y="145" width="610" height="46"></rect>
            <rect id="Form_field-3" fill="#FAFAFA" fill-rule="nonzero" x="415" y="221" width="610" height="92"></rect>
            <polygon id="formgroup_bg" fill="#00853F" fill-rule="nonzero" points="378 425.150773 700 424 700 672 378 672"></polygon>
            <rect id="Form_field" fill="#FAFAFA" fill-rule="nonzero" x="396" y="464" width="286" height="46"></rect>
            <rect id="Form_field-3" fill="#FAFAFA" fill-rule="nonzero" x="395" y="540" width="286" height="92"></rect>
            <polygon id="formgroup_bg" fill="#00853F" fill-rule="nonzero" points="741 425.150773 1063 424 1063 672 741 672"></polygon>
            <rect id="Form_field" fill="#FAFAFA" fill-rule="nonzero" x="759" y="464" width="286" height="46"></rect>
            <rect id="Form_field-3" fill="#FAFAFA" fill-rule="nonzero" x="758" y="540" width="286" height="92"></rect>
            <polygon id="formgroup_bg" fill="#00853F" fill-rule="nonzero" points="378 744.498789 1063 743 1063 1066 378 1066"></polygon>
            <rect id="Form_field" fill="#FAFAFA" fill-rule="nonzero" x="416" y="783" width="610" height="46"></rect>
            <rect id="Form_field-2" fill="#FAFAFA" fill-rule="nonzero" x="416" y="859" width="610" height="46"></rect>
            <rect id="Form_field-3" fill="#FAFAFA" fill-rule="nonzero" x="412" y="933" width="610" height="92"></rect>
            <g id="_" transform="translate(999.000000, 872.000000)" font-size="21.33" font-family="FontAwesome" fill="#95989A" font-weight="normal">
                <text id="">
                    <tspan x="0" y="18"></tspan>
                </text>
            </g>
            <rect id="Rectangle_54" fill="#00853F" fill-rule="nonzero" x="615" y="1311" width="210" height="65"></rect>
            <polygon id="formgroup_bg" fill="#00853F" fill-rule="nonzero" points="378 1113.60787 1063 1113 1063 1244 378 1244"></polygon>
            <rect id="Form_field-2" fill="#FAFAFA" fill-rule="nonzero" x="416" y="1154" width="610" height="46"></rect>
            <g id="_" transform="translate(999.000000, 1167.000000)" font-size="21.33" font-family="FontAwesome" fill="#95989A" font-weight="normal">
                <text id="">
                    <tspan x="0" y="18"></tspan>
                </text>
            </g>
        </g>
    </g>
</svg>