<?xml version="1.0" encoding="UTF-8"?>
<svg width="1440px" height="1600px" viewBox="0 0 1440 1600" version="1.1" xmlns="http://www.w3.org/2000/svg" xmlns:xlink="http://www.w3.org/1999/xlink" style="background: #FAFAFA;">
    <!-- Generator: Sketch 46.2 (44496) - http://www.bohemiancoding.com/sketch -->
    <title>Navigation_1440_svg</title>
    <desc>Created with Sketch.</desc>
    <defs></defs>
    <g id="Page-1" stroke="none" stroke-width="1" fill="none" fill-rule="evenodd">
        <g id="Navigation_1440">
            <g id="Wireframe---Hero" transform="translate(240.000000, 65.000000)" fill="#D8D8D8">
                <rect id="Rectangle" x="0" y="0" width="1200" height="340"></rect>
            </g>
            <g id="Wireframe---Top-Nav" fill="#464646">
                <rect id="Rectangle" x="0" y="0" width="1440" height="65"></rect>
            </g>
            <rect id="Rectangle" fill="#EBEBEB" x="0" y="1479" width="1440" height="376"></rect>
            <rect id="Rectangle-2" fill="#2B578D" x="498" y="1196" width="205" height="65"></rect>
            <rect id="Rectangle-2" fill="#2B578D" x="740" y="1196" width="205" height="65"></rect>
            <rect id="Rectangle-2" fill="#2B578D" x="982" y="1196" width="205" height="65"></rect>
            <g id="topnav---w/-items" fill-rule="nonzero" fill="#2B578D">
                <rect id="topnav" x="0" y="0" width="1440" height="65"></rect>
            </g>
            <g id="Ellipse_6" transform="translate(15.000000, 8.000000)">
                <ellipse id="Oval" fill="#FFFFFF" fill-rule="nonzero" cx="26.5" cy="25" rx="26.5" ry="25"></ellipse>
                <ellipse id="Oval" stroke="#95989A" cx="26.5" cy="25" rx="25.97" ry="24.5"></ellipse>
            </g>
            <g id="Rectangle_64" transform="translate(85.000000, 25.000000)">
                <rect id="Rectangle-path" fill="#FFFFFF" fill-rule="nonzero" x="0" y="0" width="106" height="16"></rect>
                <rect id="Rectangle-path" stroke="#95989A" x="0.524752475" y="0.5" width="104.950495" height="15"></rect>
            </g>
            <g id="Rectangle_62" transform="translate(999.000000, 25.000000)">
                <rect id="Rectangle-path" fill="#FFFFFF" fill-rule="nonzero" x="0" y="0" width="106" height="16"></rect>
                <rect id="Rectangle-path" stroke="#95989A" x="0.524752475" y="0.5" width="104.950495" height="15"></rect>
            </g>
            <g id="Rectangle_63" transform="translate(858.000000, 25.000000)">
                <rect id="Rectangle-path" fill="#FFFFFF" fill-rule="nonzero" x="0" y="0" width="106" height="16"></rect>
                <rect id="Rectangle-path" stroke="#95989A" x="0.524752475" y="0.5" width="104.950495" height="15"></rect>
            </g>
            <g id="Rectangle_60" transform="translate(1282.000000, 25.000000)">
                <rect id="Rectangle-path" fill="#FFFFFF" fill-rule="nonzero" x="0" y="0" width="106" height="16"></rect>
                <rect id="Rectangle-path" stroke="#95989A" x="0.524752475" y="0.5" width="104.950495" height="15"></rect>
            </g>
            <g id="Rectangle_61" transform="translate(1141.000000, 25.000000)">
                <rect id="Rectangle-path" fill="#FFFFFF" fill-rule="nonzero" x="0" y="0" width="106" height="16"></rect>
                <rect id="Rectangle-path" stroke="#95989A" x="0.524752475" y="0.5" width="104.950495" height="15"></rect>
            </g>
            <g id="sidenav" transform="translate(0.000000, 65.000000)" fill-rule="nonzero" fill="#2B578D">
                <rect x="0" y="0" width="240" height="1414"></rect>
            </g>
            <g id="Iconbar" transform="translate(239.000000, 405.000000)">
                <rect id="topnav-2" fill="#2B578D" fill-rule="nonzero" x="0" y="0" width="1201" height="124"></rect>
                <g id="Ellipse_1" transform="translate(253.000000, 24.000000)">
                    <circle id="Oval" fill="#FFFFFF" fill-rule="nonzero" cx="25" cy="25" r="25"></circle>
                    <circle id="Oval" stroke="#95989A" cx="25" cy="25" r="24.5"></circle>
                </g>
                <g id="Rectangle_55" transform="translate(228.000000, 84.000000)">
                    <rect id="Rectangle-path" fill="#FFFFFF" fill-rule="nonzero" x="0" y="0" width="101" height="16"></rect>
                    <rect id="Rectangle-path" stroke="#95989A" x="0.5" y="0.5" width="100" height="15"></rect>
                </g>
                <g id="Ellipse_2" transform="translate(414.000000, 24.000000)">
                    <circle id="Oval" fill="#FFFFFF" fill-rule="nonzero" cx="25" cy="25" r="25"></circle>
                    <circle id="Oval" stroke="#95989A" cx="25" cy="25" r="24.5"></circle>
                </g>
                <g id="Rectangle_56" transform="translate(389.000000, 84.000000)">
                    <rect id="Rectangle-path" fill="#FFFFFF" fill-rule="nonzero" x="0" y="0" width="101" height="16"></rect>
                    <rect id="Rectangle-path" stroke="#95989A" x="0.5" y="0.5" width="100" height="15"></rect>
                </g>
                <g id="Ellipse_3" transform="translate(575.000000, 24.000000)">
                    <circle id="Oval" fill="#FFFFFF" fill-rule="nonzero" cx="25" cy="25" r="25"></circle>
                    <circle id="Oval" stroke="#95989A" cx="25" cy="25" r="24.5"></circle>
                </g>
                <g id="Rectangle_57" transform="translate(550.000000, 84.000000)">
                    <rect id="Rectangle-path" fill="#FFFFFF" fill-rule="nonzero" x="0" y="0" width="101" height="16"></rect>
                    <rect id="Rectangle-path" stroke="#95989A" x="0.5" y="0.5" width="100" height="15"></rect>
                </g>
                <g id="Ellipse_4" transform="translate(736.000000, 24.000000)">
                    <circle id="Oval" fill="#FFFFFF" fill-rule="nonzero" cx="25" cy="25" r="25"></circle>
                    <circle id="Oval" stroke="#95989A" cx="25" cy="25" r="24.5"></circle>
                </g>
                <g id="Rectangle_58" transform="translate(711.000000, 84.000000)">
                    <rect id="Rectangle-path" fill="#FFFFFF" fill-rule="nonzero" x="0" y="0" width="101" height="16"></rect>
                    <rect id="Rectangle-path" stroke="#95989A" x="0.5" y="0.5" width="100" height="15"></rect>
                </g>
                <g id="Ellipse_5" transform="translate(897.000000, 24.000000)">
                    <circle id="Oval" fill="#FFFFFF" fill-rule="nonzero" cx="25" cy="25" r="25"></circle>
                    <circle id="Oval" stroke="#95989A" cx="25" cy="25" r="24.5"></circle>
                </g>
                <g id="Rectangle_59" transform="translate(872.000000, 84.000000)">
                    <rect id="Rectangle-path" fill="#FFFFFF" fill-rule="nonzero" x="0" y="0" width="101" height="16"></rect>
                    <rect id="Rectangle-path" stroke="#95989A" x="0.5" y="0.5" width="100" height="15"></rect>
                </g>
            </g>
            <g id="content" transform="translate(498.000000, 690.000000)" fill-rule="nonzero" fill="#D8D8D8">
                <rect id="Rectangle_3" x="0" y="0" width="684.96" height="86"></rect>
                <rect id="Rectangle_4" x="0" y="102" width="684.96" height="26"></rect>
                <rect id="Rectangle_5" x="0" y="312" width="684.96" height="26"></rect>
                <rect id="Rectangle_6" x="0" y="354" width="684.96" height="26"></rect>
                <rect id="Rectangle_7" x="0" y="396" width="684.96" height="26"></rect>
                <rect id="Rectangle_8" x="0" y="438" width="300" height="26"></rect>
                <rect id="Rectangle_9" x="0" y="186" width="684.96" height="26"></rect>
                <rect id="Rectangle_10" x="0" y="228" width="684.96" height="26"></rect>
                <rect id="Rectangle_11" x="0" y="270" width="684.96" height="26"></rect>
                <rect id="Rectangle_12" x="0" y="144" width="684.96" height="26"></rect>
            </g>
            <g id="Rectangle_63" transform="translate(39.000000, 109.000000)">
                <rect id="Rectangle-path" fill="#FFFFFF" fill-rule="nonzero" x="0" y="0" width="162" height="16"></rect>
                <rect id="Rectangle-path" stroke="#95989A" x="0.801980198" y="0.5" width="160.39604" height="15"></rect>
            </g>
            <g id="Rectangle_63" transform="translate(39.000000, 169.000000)">
                <rect id="Rectangle-path" fill="#FFFFFF" fill-rule="nonzero" x="0" y="0" width="162" height="16"></rect>
                <rect id="Rectangle-path" stroke="#95989A" x="0.801980198" y="0.5" width="160.39604" height="15"></rect>
            </g>
            <g id="Rectangle_63" transform="translate(39.000000, 229.000000)">
                <rect id="Rectangle-path" fill="#FFFFFF" fill-rule="nonzero" x="0" y="0" width="162" height="16"></rect>
                <rect id="Rectangle-path" stroke="#95989A" x="0.801980198" y="0.5" width="160.39604" height="15"></rect>
            </g>
            <g id="Search" transform="translate(498.000000, 203.000000)">
                <rect id="Search-Input" fill="#2B578D" fill-rule="nonzero" x="0" y="0" width="685" height="65"></rect>
                <text id="" font-family="FontAwesome" font-size="28" font-weight="normal" fill="#FAFAFA">
                    <tspan x="633" y="41"></tspan>
                </text>
            </g>
            <rect id="Rectangle-8" fill="#2B578D" x="498" y="626" width="123" height="27"></rect>
            <rect id="Rectangle-8" fill="#9B9B9B" x="664" y="626" width="123" height="27"></rect>
            <polygon id="Triangle" fill="#464646" transform="translate(644.000000, 640.500000) rotate(90.000000) translate(-644.000000, -640.500000) " points="644 630.5 655.5 650.5 632.5 650.5"></polygon>
            <rect id="Rectangle-6" fill="#2B578D" x="659" y="1329" width="43" height="42"></rect>
            <rect id="Rectangle-6" fill="#2B578D" x="733" y="1329" width="43" height="42"></rect>
            <rect id="Rectangle-6" fill="#2B578D" x="806" y="1329" width="43" height="42"></rect>
            <rect id="Rectangle-6" fill="#2B578D" x="879" y="1329" width="43" height="42"></rect>
            <rect id="Rectangle-6" fill="#2B578D" x="952" y="1329" width="43" height="42"></rect>
            <polygon id="Triangle" fill="#2B578D" transform="translate(616.000000, 1351.500000) scale(-1, 1) rotate(90.000000) translate(-616.000000, -1351.500000) " points="616 1336.5 633.5 1366.5 598.5 1366.5"></polygon>
            <polygon id="Triangle" fill="#2B578D" transform="translate(1041.000000, 1351.500000) rotate(90.000000) translate(-1041.000000, -1351.500000) " points="1041 1336.5 1058.5 1366.5 1023.5 1366.5"></polygon>
        </g>
    </g>
</svg>