<?xml version="1.0" encoding="UTF-8"?>
<svg width="1440px" height="1600px" viewBox="0 0 1440 1600" version="1.1" xmlns="http://www.w3.org/2000/svg" xmlns:xlink="http://www.w3.org/1999/xlink" style="background: #FAFAFA;">
    <!-- Generator: Sketch 46.2 (44496) - http://www.bohemiancoding.com/sketch -->
    <title>Sharing_1440_svg</title>
    <desc>Created with Sketch.</desc>
    <defs>
        <rect id="path-1" x="1226" y="1163" width="83" height="16"></rect>
        <rect id="path-2" x="1226" y="1230" width="83" height="16"></rect>
        <rect id="path-3" x="1226" y="1297" width="83" height="16"></rect>
    </defs>
    <g id="Page-1" stroke="none" stroke-width="1" fill="none" fill-rule="evenodd">
        <g id="Sharing_1440">
            <g id="Wireframe---Hero" transform="translate(0.000000, 65.000000)" fill="#B0B0B0">
                <rect id="Rectangle" x="0" y="0" width="1440" height="340"></rect>
            </g>
            <g id="Wireframe---Top-Nav" fill="#D8D8D8">
                <rect id="Rectangle" x="0" y="0" width="1440" height="65"></rect>
            </g>
            <rect id="Rectangle" fill="#D8D8D8" x="0" y="1426" width="1440" height="376"></rect>
            <rect id="Rectangle" fill="#EBEBEB" x="0" y="1050" width="1440" height="376"></rect>
            <g id="Media-Object" transform="translate(378.000000, 476.000000)" fill-rule="nonzero">
                <rect id="Rectangle_3" fill="#EDEDED" x="97" y="0" width="215.96" height="86"></rect>
                <rect id="Rectangle_65" fill="#95989A" x="0" y="0" width="96.96" height="86"></rect>
                <rect id="Rectangle_66" fill="#EDEDED" x="469" y="0" width="215.96" height="86"></rect>
                <rect id="Rectangle_67" fill="#95989A" x="372" y="0" width="96.96" height="86"></rect>
                <rect id="Rectangle_68" fill="#EDEDED" x="97" y="106" width="215.96" height="86"></rect>
                <rect id="Rectangle_69" fill="#95989A" x="0" y="106" width="96.96" height="86"></rect>
                <rect id="Rectangle_70" fill="#EDEDED" x="469" y="106" width="215.96" height="86"></rect>
                <rect id="Rectangle_71" fill="#95989A" x="372" y="106" width="96.96" height="86"></rect>
                <rect id="Rectangle_72" fill="#EDEDED" x="97" y="212" width="215.96" height="86"></rect>
                <rect id="Rectangle_73" fill="#95989A" x="0" y="212" width="96.96" height="86"></rect>
                <rect id="Rectangle_74" fill="#EDEDED" x="469" y="212" width="215.96" height="86"></rect>
                <rect id="Rectangle_75" fill="#95989A" x="372" y="212" width="96.96" height="86"></rect>
                <rect id="Rectangle_76" fill="#EDEDED" x="97" y="318" width="215.96" height="86"></rect>
                <rect id="Rectangle_77" fill="#95989A" x="0" y="318" width="96.96" height="86"></rect>
                <rect id="Rectangle_78" fill="#EDEDED" x="469" y="318" width="215.96" height="86"></rect>
                <rect id="Rectangle_79" fill="#95989A" x="372" y="318" width="96.96" height="86"></rect>
                <rect id="Rectangle_80" fill="#EDEDED" x="97" y="424" width="215.96" height="86"></rect>
                <rect id="Rectangle_81" fill="#95989A" x="0" y="424" width="96.96" height="86"></rect>
                <rect id="Rectangle_82" fill="#EDEDED" x="469" y="424" width="215.96" height="86"></rect>
                <rect id="Rectangle_83" fill="#95989A" x="372" y="424" width="96.96" height="86"></rect>
            </g>
            <circle id="Oval-2" fill="#464646" cx="1182" cy="1171" r="20"></circle>
            <g id="Rectangle-2">
                <use fill="#464646" fill-rule="evenodd" xlink:href="#path-1"></use>
                <rect stroke="#979797" stroke-width="1" x="1226.5" y="1163.5" width="82" height="15"></rect>
            </g>
            <rect id="Rectangle-2" fill="#A6A6A6" x="602" y="1269" width="83" height="16"></rect>
            <circle id="Oval-2" fill="#464646" cx="1182" cy="1238" r="20"></circle>
            <g id="Rectangle-2">
                <use fill="#464646" fill-rule="evenodd" xlink:href="#path-2"></use>
                <rect stroke="#979797" stroke-width="1" x="1226.5" y="1230.5" width="82" height="15"></rect>
            </g>
            <circle id="Oval-2" fill="#464646" cx="1182" cy="1305" r="20"></circle>
            <g id="Rectangle-2">
                <use fill="#464646" fill-rule="evenodd" xlink:href="#path-3"></use>
                <rect stroke="#979797" stroke-width="1" x="1226.5" y="1297.5" width="82" height="15"></rect>
            </g>
            <path d="M1064.5,1089.5 L1064.5,1387.5" id="Line" stroke="#979797" stroke-width="3" stroke-linecap="square"></path>
            <circle id="Oval-2" fill="#A6A6A6" cx="643" cy="1208" r="30"></circle>
        </g>
    </g>
</svg>