<svg xmlns="http://www.w3.org/2000/svg" viewBox="0 0 146.4 24">
  <defs>
    <style>
        <![CDATA[
            @import url('https://fonts.googleapis.com/css?family=Open+Sans+Condensed:700');
            .a, .b {fill: #fafafa;}
            .b {font-family: 'Open Sans Condensed', sans-serif; font-size: 10.34px; font-weight: 700; }
         ]]>
    </style>
  </defs>
  <title>PBPP Most Wanted Absconders - Logo</title>
  <path class="a" d="M15.13,7.06h-.9v1.8H15c.87,0,1.56-.08,1.56-.91s-.48-.89-1.39-.89ZM16.2,5.68c0-.62-.37-.73-1.16-.73h-.82V6.5H15c.83,0,1.2-.26,1.2-.82Zm1,2.23c0,1.06-.68,1.51-2,1.51H13.59v-5h1.49c1.35,0,1.78.37,1.78,1.15a1.08,1.08,0,0,1-.78,1.13A1.15,1.15,0,0,1,17.2,7.92Zm5.29-3h-.8v2h.7c.88,0,1.29-.16,1.29-1S23.25,5,22.49,5Zm1.88.93c0,1.13-.55,1.6-1.87,1.6h-.8V9.42h-.64v-5h1.47c1.18,0,1.84.38,1.84,1.5ZM18.84,5H18v2h.7c.88,0,1.29-.16,1.29-1S19.59,5,18.84,5Zm1.88.93c0,1.13-.55,1.6-1.87,1.6H18V9.42H17.4v-5h1.47c1.18,0,1.84.38,1.84,1.5ZM11.37,5h-.8v2h.7c.88,0,1.29-.16,1.29-1S12.13,5,11.37,5Zm1.88.93c0,1.13-.55,1.6-1.87,1.6h-.8V9.42H9.93v-5h1.47c1.18,0,1.84.38,1.84,1.5ZM2.82,9.57l.87,4a19.14,19.14,0,0,1,7.9-2.66A19.28,19.28,0,0,0,2.82,9.57Zm10.54,1.61a19.4,19.4,0,0,1,8.91,9.21L23.7,14a19.24,19.24,0,0,0-10.33-2.78Zm-.84-.4a19.69,19.69,0,0,1,11.27,2.73L26,3.59H19L19.83.25H7.66l.79,3.34H1.5L2.73,9.15a19.78,19.78,0,0,1,9.79,1.64Zm9.6,10.31-.59,2.65H6L3.79,14a18.75,18.75,0,0,1,8.65-2.75,19,19,0,0,1,9.68,9.88Z"/>
  <text class="b" transform="translate(30.18 15.94)">
      MOST WANTED ABSCONDERS
  </text>
</svg>
